# AST/ASF file generated using VICON BodyLanguage
# -----------------------------------------------
:version 1.10
:name VICON
:units
  mass 1.0
  length 0.45
  angle deg
:documentation
   .ast/.asf automatically generated from VICON data using
   VICON BodyBuilder and BodyLanguage model FoxedUp or BRILLIANT.MOD
:root
   order TX TY TZ RX RY RZ
   axis XYZ
   position 0 0 0  
   orientation 0 0 0 
:bonedata
  begin
     id 1 
     name lhipjoint
     direction 0.535335 -0.74333 0.401095 
     length 2.04549 
     axis 0 0 0  XYZ
  end
  begin
     id 2 
     name lfemur
     direction 0.34202 -0.939693 0  
     length 6.95643  
     axis 0 0 20  XYZ
    dof rx ry rz
    limits (-160.0 20.0)
           (-70.0 70.0)
           (-60.0 70.0)
  end
  begin
     id 3 
     name ltibia
     direction 0.34192 -0.939729 0   
     length 5.55969   
     axis 0 0 20   XYZ
    dof rx
    limits (-10.0 170.0)
  end
  begin
     id 4 
     name lfoot
     direction 0.216943 -0.596046 0.773088   
     length 2.27918   
     axis -90 7.62852e-016 20   XYZ
    dof rx rz
    limits (-45.0 90.0)
           (-70.0 20.0)
  end
  begin
     id 5 
     name ltoes
     direction 1.53519e-011 -4.21748e-011 1   
     length 1.05562   
     axis -90 7.62852e-016 20   XYZ
    dof rx
    limits (-90.0 20.0)
  end
  begin
     id 6 
     name rhipjoint
     direction -0.576368 -0.719173 0.38806   
     length 2.1142  
     axis 0 0 0  XYZ 
  end
  begin
     id 7 
     name rfemur
     direction -0.34202 -0.939693 0   
     length 7.07928   
     axis 0 0 -20   XYZ
    dof rx ry rz
    limits (-160.0 20.0)
           (-70.0 70.0)
           (-70.0 60.0)
  end
  begin
     id 8 
     name rtibia
     direction -0.34202 -0.939693 0   
     length 5.79974   
     axis 0 0 -20   XYZ
    dof rx
    limits (-10.0 170.0)
 end
 begin
     id 9 
     name rfoot
     direction -0.189288 -0.520065 0.832888   
     length 2.42173  
     axis -90 -7.62852e-016 -20   XYZ
    dof rx rz
    limits (-45.0 90.0)
           (-20.0 70.0)
  end
  begin
     id 10 
     name rtoes
     direction -1.53574e-011 -4.21658e-011 1   
     length 1.14469   
     axis -90 -7.62852e-016 -20   XYZ
    dof rx
    limits (-90.0 20.0)
  end
  begin
     id 11 
     name lowerback
     direction -0.00135702 0.993803 0.111144   
     length 1.91308   
     axis 0 0 0   XYZ
    dof rx ry rz
    limits (-20.0 45.0)
           (-30.0 30.0)
           (-30.0 30.0)
  end
  begin
     id 12 
     name upperback
     direction -0.0056745 0.999813 0.0184631   
     length 1.9212   
     axis 0 0 0   XYZ
    dof rx ry rz
    limits (-20.0 45.0)
           (-30.0 30.0)
           (-30.0 30.0)
  end
  begin
     id 13 
     name thorax
     direction -0.00733434 0.999426 -0.0330788   
     length 1.94196   
     axis 0 0 0   XYZ
    dof rx ry rz
    limits (-20.0 45.0)
           (-30.0 30.0)
           (-30.0 30.0)
  end
  begin
     id 14 
     name lowerneck
     direction 0.0563074 0.996944 -0.0541571   
     length 2.34257   
     axis 0 0 0   XYZ
    dof rx ry rz
    limits (-20.0 45.0)
           (-30.0 30.0)
           (-30.0 30.0)
  end
  begin
     id 15 
     name upperneck
     direction -0.0544519 0.976166 -0.210085   
     length 2.32506   
     axis 0 0 0   XYZ
    dof rx ry rz
    limits (-20.0 45.0)
           (-30.0 30.0)
           (-30.0 30.0)
  end
  begin
     id 16
     name head
     direction -0.0226035 0.997615 -0.0652205  
     length 2.3648  
     axis 0 0 0   XYZ
    dof rx ry rz
    limits (-20.0 45.0)
           (-30.0 30.0)
           (-30.0 30.0)
  end
  begin
     id 17 
     name lclavicle
     direction 0.92109 0.381297 -0.0787716  
     length 4.0487  
     axis 0 0 0   XYZ
    dof ry rz
    limits (-20.0 10.0)
           (0.0 20.0)
  end
  begin
     id 18 
     name lhumerus
     direction 1 -4.48986e-011 3.56724e-027   
     length 4.94991   
     axis 180 -30 -90   XYZ
    dof rx ry rz
    limits (-60.0 90.0)
           (-90.0 90.0)
           (-90.0 90.0)
  end
  begin
     id 19
     name lradius
     direction 1 -4.48981e-011 8.62147e-027   
     length 2.7606   
     axis 180 -30 -90   XYZ
    dof rx
    limits (-10.0 170.0)
  end
  begin
     id 20
     name lwrist
     direction 1 -4.48989e-011 1.59799e-026   
     length 1.3803   
     axis -1.17785e-014 90 90   XYZ
    dof ry
    limits (-180.0 0.0)
 end
  begin
     id 21 
     name lhand
     direction 1 -4.48896e-011 3.19599e-026   
     length 0.843936   
     axis -2.03931e-014 90 90   XYZ
    dof rx rz
    limits (-90.0 90.0)
           (-45.0 45.0)
  end
  begin
     id 22 
     name lfingers
     direction 1 -4.48887e-011 6.39197e-026   
     length 0.680403   
     axis -4.07862e-014 90 90   XYZ
    dof rx
    limits (0.0 90.0)
  end
  begin
     id 23
     name lthumb
     direction 0.707107 -6.348e-011 0.707107   
     length 0.976926   
     axis -90 45 2.85299e-015   XYZ
    dof rx rz
    limits (-45.0 45.0)
           (-45.0 45.0)
  end
  begin
     id 24 
     name rclavicle
     direction -0.951104 0.307692 -0.026953   
     length 4.21801  
     axis 0 0 0   XYZ 
    dof ry rz
    limits (-10.0 20.0)
           (-20.0 0.0)
  end
  begin
     id 25 
     name rhumerus
     direction -1 -4.4896e-011 -1.8171e-018  
     length 4.32982   
     axis 180 30 90   XYZ
    dof rx ry rz
    limits (-90.0 60.0)
           (-90.0 90.0)
           (-90.0 90.0)
  end
  begin
     id 26 
     name rradius
     direction -1 -4.48959e-011 8.25165e-027   
     length 3.20057   
     axis 180 30 90   XYZ
    dof rx
    limits (-10.0 170.0)
  end
  begin
     id 27 
     name rwrist
     direction -1 -4.48997e-011 1.59799e-026   
     length 1.60029   
     axis -1.17785e-014 -90 -90   XYZ
    dof ry
    limits (-180.0 0.0)
  end
  begin
     id 28
     name rhand
     direction -1 -4.49023e-011 3.19599e-026   
     length 0.960433   
     axis -2.03931e-014 -90 -90   XYZ
    dof rx rz
    limits (-90.0 90.0)
           (-45.0 45.0)
  end
  begin
     id 29
     name rfingers
     direction -1 -4.48802e-011 6.39197e-026   
     length 0.774326   
     axis -4.07862e-014 -90 -90   XYZ
    dof rx
    limits (0.0 90.0)
  end
  begin
     id 30
     name rthumb
     direction -0.707107 -6.34876e-011 0.707107   
     length 1.11178   
     axis -90 -45 -2.85299e-015   XYZ
    dof rx rz
    limits (-45.0 45.0)
           (-45.0 45.0)
  end
:hierarchy
  begin
    root lhipjoint rhipjoint lowerback
    lhipjoint lfemur
    lfemur ltibia
    ltibia lfoot
    lfoot ltoes
    rhipjoint rfemur
    rfemur rtibia
    rtibia rfoot
    rfoot rtoes
    lowerback upperback
    upperback thorax
    thorax lowerneck lclavicle rclavicle
    lowerneck upperneck
    upperneck head
    lclavicle lhumerus
    lhumerus lradius
    lradius lwrist
    lwrist lhand lthumb
    lhand lfingers
    rclavicle rhumerus
    rhumerus rradius
    rradius rwrist
    rwrist rhand rthumb
    rhand rfingers
end

#!OML:ASF C:\KaitlinTest1\Natural Motions\Nikki\Session 2\Nikki.ASF
:FULLY-SPECIFIED
:DEGREES
475
root 0.477303 16.6065 5.27764 -153.771 83.3287 -165.761
lowerback -8.71267 -3.43684 1.38427
upperback -1.91376 -4.66626 0.759949
thorax 2.84048 -2.28995 -0.499166
lowerneck 17.3537 -4.51585 -17.8711
upperneck 15.4599 47.5122 10.547
head 175.71 59.6102 -28.446
rclavicle 2.97183e-014 1.98785e-015
rhumerus -38.7031 -14.212 -83.0824
rradius 21.2423
rwrist 13.1775
rhand -38.1337 2.96016
rfingers 7.12502
rthumb -11.1682 -26.7226
lclavicle 2.97183e-014 1.98785e-015
lhumerus -41.4505 16.9952 80.3209
lradius 23.5673
lwrist -32.5121
lhand -34.714 4.17957
lfingers 7.12502
lthumb -7.86877 34.0131
rfemur -21.0104 -18.2732 23.9078
rtibia 26.2045
rfoot -14.8247 12.6757
rtoes -3.81667e-014
lfemur -24.6809 20.3845 -21.4994
ltibia 27.2579
lfoot -7.27831 -26.1619
ltoes 1.59028e-014
476
root 0.47803 16.6042 5.27582 -153.6 83.2876 -165.543
lowerback -8.74584 -3.43716 1.37421
upperback -1.91119 -4.66646 0.768484
thorax 2.86303 -2.28975 -0.487159
lowerneck 17.2752 -4.57531 -17.8405
upperneck 15.3101 47.2767 10.3927
head 175.546 59.8024 -28.5175
rclavicle -5.14355e-015 -4.77083e-015
rhumerus -38.7014 -14.9614 -82.5968
rradius 20.9792
rwrist 15.047
rhand -37.665 3.59684
rfingers 7.12502
rthumb -10.7162 -26.1099
lclavicle -5.14355e-015 -4.77083e-015
lhumerus -41.1755 16.008 81.2301
lradius 23.7809
lwrist -30.4811
lhand -35.4531 4.61194
lfingers 7.12502
lthumb -8.58201 34.4175
rfemur -20.9245 -18.1458 23.8917
rtibia 26.1952
rfoot -14.9092 12.582
rtoes -1.46306e-013
lfemur -24.6233 20.4327 -21.4572
ltibia 27.2786
lfoot -7.32739 -26.2311
ltoes -7.79236e-014
477
root 0.474995 16.6033 5.27018 -153.905 83.272 -165.882
lowerback -8.79225 -3.44225 1.36438
upperback -1.96444 -4.66984 0.747763
thorax 2.83253 -2.29122 -0.504243
lowerneck 17.1803 -4.6025 -17.806
upperneck 15.3285 47.3685 10.4378
head 175.579 59.7016 -28.5421
rclavicle 4.49875e-014 1.25234e-014
rhumerus -38.6899 -14.8597 -82.7728
rradius 21.0934
rwrist 15.0518
rhand -37.6078 3.5119
rfingers 7.12502
rthumb -10.661 -26.1976
lclavicle 4.49875e-014 1.25234e-014
lhumerus -41.0793 15.7804 81.4474
lradius 23.9288
lwrist -30.2545
lhand -35.5215 4.60179
lfingers 7.12502
lthumb -8.64805 34.4047
rfemur -20.9796 -18.3534 23.8904
rtibia 26.1945
rfoot -14.8858 12.6758
rtoes 1.15295e-013
lfemur -24.7115 20.491 -21.5555
ltibia 27.293
lfoot -7.2789 -26.3468
ltoes 1.22451e-013
478
root 0.472764 16.6015 5.26755 -154.004 83.2532 -165.974
lowerback -8.80863 -3.4433 1.34431
upperback -1.99657 -4.66808 0.745706
thorax 2.80977 -2.29038 -0.494824
lowerneck 17.0813 -4.65862 -17.7742
upperneck 15.2093 47.1999 10.3214
head 175.441 59.863 -28.6215
rclavicle -7.9663e-014 -1.63003e-014
rhumerus -38.6254 -14.5864 -83.0385
rradius 21.1656
rwrist 14.6866
rhand -37.5571 3.52604
rfingers 7.12502
rthumb -10.612 -26.186
lclavicle -7.9663e-014 -1.63003e-014
lhumerus -40.9541 15.6282 81.6417
lradius 24.0251
lwrist -30.2128
lhand -35.5723 4.55449
lfingers 7.12502
lthumb -8.69711 34.3553
rfemur -20.9778 -18.3123 23.8665
rtibia 26.1929
rfoot -14.8602 12.6056
rtoes -8.11041e-014
lfemur -24.7191 20.4903 -21.5774
ltibia 27.3096
lfoot -7.28036 -26.3318
ltoes -3.49861e-014
479
root 0.472116 16.601 5.26664 -153.919 83.1672 -165.912
lowerback -8.88253 -3.47924 1.3147
upperback -2.03053 -4.71334 0.775873
thorax 2.81974 -2.3124 -0.455871
lowerneck 16.9298 -4.69383 -17.7587
upperneck 15.1665 47.2208 10.2938
head 175.4 59.7923 -28.6747
rclavicle -8.62228e-015 2.5842e-015
rhumerus -38.6266 -14.4497 -83.1792
rradius 21.2526
rwrist 14.8634
rhand -37.5741 3.51819
rfingers 7.12502
rthumb -10.6284 -26.193
lclavicle -8.62228e-015 2.5842e-015
lhumerus -40.915 16.1247 81.2947
lradius 24.0274
lwrist -31.69
lhand -35.0527 4.28121
lfingers 7.12502
lthumb -8.19559 34.1023
rfemur -20.9859 -18.1973 23.8862
rtibia 26.1838
rfoot -14.7944 12.4078
rtoes -4.21423e-014
lfemur -24.7931 20.5521 -21.5815
ltibia 27.3296
lfoot -7.26518 -26.5025
ltoes -1.46306e-013
480
root 0.47228 16.6021 5.26162 -153.894 83.173 -165.913
lowerback -8.9595 -3.46942 1.31905
upperback -2.06937 -4.6994 0.767138
thorax 2.82116 -2.30477 -0.469251
lowerneck 16.7632 -4.74775 -17.7147
upperneck 15.1353 47.2706 10.2911
head 175.383 59.6519 -28.7242
rclavicle 2.34566e-014 -6.95746e-015
rhumerus -38.5242 -13.3119 -84.1546
rradius 21.6994
rwrist 12.3144
rhand -38.1103 2.98853
rfingers 7.12502
rthumb -11.1457 -26.6955
lclavicle 2.34566e-014 -6.95746e-015
lhumerus -40.692 15.3587 82.0236
lradius 24.2202
lwrist -30.0136
lhand -35.6664 4.50661
lfingers 7.12502
lthumb -8.7879 34.3036
rfemur -21.0076 -18.2258 23.8747
rtibia 26.1762
rfoot -14.8065 12.4418
rtoes 5.88403e-014
lfemur -24.821 20.582 -21.6204
ltibia 27.3288
lfoot -7.2558 -26.5137
ltoes 1.1609e-013
481
root 0.471475 16.6023 5.25707 -153.95 83.1245 -165.939
lowerback -8.96738 -3.47788 1.32533
upperback -2.0977 -4.71 0.769686
thorax 2.7957 -2.30996 -0.470611
lowerneck 16.5886 -4.77771 -17.6929
upperneck 15.1156 47.3578 10.3123
head 175.476 59.4689 -28.7112
rclavicle 4.87147e-014 7.15625e-015
rhumerus -38.552 -14.087 -83.6094
rradius 21.4142
rwrist 14.3054
rhand -37.5268 3.41534
rfingers 7.12502
rthumb -10.5828 -26.2982
lclavicle 4.87147e-014 7.15625e-015
lhumerus -40.5393 15.1203 82.2874
lradius 24.3124
lwrist -29.767
lhand -35.6762 4.47498
lfingers 7.12502
lthumb -8.79731 34.2716
rfemur -20.9538 -18.2236 23.8562
rtibia 26.1628
rfoot -15.0858 12.5464
rtoes 1.66979e-014
lfemur -24.7809 20.5317 -21.6038
ltibia 27.3307
lfoot -7.28967 -26.4812
ltoes -2.06736e-014
482
root 0.471518 16.6039 5.25345 -154.007 83.0961 -165.974
lowerback -8.98666 -3.48214 1.3204
upperback -2.12327 -4.71401 0.76421
thorax 2.77974 -2.31183 -0.474173
lowerneck 16.3814 -4.83267 -17.6474
upperneck 15.0763 47.4246 10.312
head 175.496 59.2782 -28.7444
rclavicle -2.24999e-014 1.92821e-014
rhumerus -38.4571 -13.2782 -84.38
rradius 21.7956
rwrist 12.339
rhand -38.0102 2.95428
rfingers 7.12502
rthumb -11.0491 -26.7349
lclavicle -2.24999e-014 1.92821e-014
lhumerus -40.4043 15.0944 82.3918
lradius 24.3318
lwrist -29.9517
lhand -35.6681 4.45572
lfingers 7.12502
lthumb -8.7895 34.2527
rfemur -20.8978 -18.162 23.8112
rtibia 26.1377
rfoot -15.0682 12.4974
rtoes 2.78299e-014
lfemur -24.7476 20.4813 -21.5916
ltibia 27.3395
lfoot -7.28895 -26.4746
ltoes 5.40694e-014
483
root 0.470759 16.6038 5.24911 -154.435 83.0827 -166.399
lowerback -9.02221 -3.48982 1.28476
upperback -2.15935 -4.71888 0.73944
thorax 2.7627 -2.31419 -0.481292
lowerneck 16.1839 -4.8828 -17.6082
upperneck 15.0135 47.4377 10.2863
head 175.504 59.2024 -28.7814
rclavicle -5.14355e-015 -2.5842e-015
rhumerus -38.4084 -13.3374 -84.4513
rradius 21.7714
rwrist 12.4987
rhand -38.0188 2.97868
rfingers 7.12502
rthumb -11.0574 -26.7101
lclavicle -5.14355e-015 -2.5842e-015
lhumerus -40.2754 14.736 82.7241
lradius 24.5236
lwrist -29.4867
lhand -35.7257 4.52547
lfingers 7.12502
lthumb -8.84513 34.3201
rfemur -20.8654 -18.0857 23.7272
rtibia 26.1103
rfoot -15.0606 12.3635
rtoes -2.62396e-014
lfemur -24.7573 20.4762 -21.6664
ltibia 27.3511
lfoot -7.31756 -26.4984
ltoes -2.22639e-014
484
root 0.4706 16.6027 5.24641 -154.095 83.0655 -166.07
lowerback -9.05376 -3.50099 1.30073
upperback -2.22047 -4.73307 0.754836
thorax 2.7166 -2.32091 -0.475438
lowerneck 16.0075 -4.93986 -17.5656
upperneck 14.9374 47.4092 10.2284
head 175.415 59.1452 -28.8566
rclavicle -6.8941e-014 -8.94531e-015
rhumerus -38.3939 -13.1674 -84.6132
rradius 21.7749
rwrist 12.4291
rhand -38.0286 2.97872
rfingers 7.12502
rthumb -11.0668 -26.7095
lclavicle -6.8941e-014 -8.94531e-015
lhumerus -40.3119 15.2836 82.3633
lradius 24.5717
lwrist -31.0404
lhand -35.3028 4.26191
lfingers 7.12502
lthumb -8.43699 34.0734
rfemur -20.8782 -18.1371 23.7903
rtibia 26.0821
rfoot -15.0936 12.3868
rtoes -1.00983e-013
lfemur -24.7722 20.4227 -21.6239
ltibia 27.3607
lfoot -7.29931 -26.4493
ltoes -6.36111e-015
485
root 0.471358 16.6033 5.24266 -153.974 83.0223 -165.976
lowerback -9.12115 -3.50826 1.32506
upperback -2.27063 -4.74355 0.767027
thorax 2.70074 -2.32538 -0.479951
lowerneck 15.7807 -4.98883 -17.5449
upperneck 14.8691 47.4412 10.1945
head 175.431 58.9895 -28.8845
rclavicle -4.9311e-014 6.16232e-015
rhumerus -38.3629 -12.9686 -84.7677
rradius 21.8168
rwrist 12.1974
rhand -38.0145 3.05477
rfingers 7.12502
rthumb -11.0532 -26.6342
lclavicle -4.9311e-014 6.16232e-015
lhumerus -40.0699 14.5096 83.1185
lradius 24.6762
lwrist -29.3165
lhand -35.8108 4.44041
lfingers 7.12502
lthumb -8.92721 34.2316
rfemur -20.88 -18.0534 23.7853
rtibia 26.0597
rfoot -14.8997 12.2135
rtoes 2.62396e-014
lfemur -24.8133 20.3957 -21.6224
ltibia 27.3706
lfoot -7.32038 -26.45
ltoes 2.06736e-014
486
root 0.472527 16.6023 5.23977 -153.842 83.0065 -165.842
lowerback -9.17474 -3.5114 1.32925
upperback -2.30599 -4.74679 0.76397
thorax 2.69301 -2.32648 -0.487881
lowerneck 15.5496 -5.06958 -17.482
upperneck 14.7662 47.3959 10.1204
head 175.327 58.9237 -28.9786
rclavicle 2.09097e-014 1.74931e-014
rhumerus -38.3665 -13.7977 -84.2176
rradius 21.5172
rwrist 14.239
rhand -37.5287 3.3626
rfingers 7.12502
rthumb -10.5847 -26.3508
lclavicle 2.09097e-014 1.74931e-014
lhumerus -39.99 15.063 82.7986
lradius 24.5799
lwrist -30.7995
lhand -35.5959 4.18644
lfingers 7.12502
lthumb -8.7199 33.9863
rfemur -20.8644 -18.0386 23.7898
rtibia 26.0428
rfoot -14.7295 12.0846
rtoes 1.52667e-013
lfemur -24.7965 20.3423 -21.5962
ltibia 27.3789
lfoot -7.34854 -26.4165
ltoes 1.74931e-014
487
root 0.473216 16.603 5.23638 -153.888 82.9883 -165.909
lowerback -9.21425 -3.52411 1.30112
upperback -2.39246 -4.75747 0.770944
thorax 2.62795 -2.33157 -0.465376
lowerneck 15.3771 -5.08962 -17.4647
upperneck 14.77 47.5352 10.1689
head 175.468 58.6453 -28.9387
rclavicle 4.69629e-014 -1.78906e-015
rhumerus -38.4254 -13.7761 -84.2531
rradius 21.4685
rwrist 14.3064
rhand -37.4102 3.4952
rfingers 7.12502
rthumb -10.4704 -26.2241
lclavicle 4.69629e-014 -1.78906e-015
lhumerus -39.9352 14.9297 82.9274
lradius 24.6468
lwrist -30.9018
lhand -35.4064 4.11988
lfingers 7.12502
lthumb -8.53699 33.9273
rfemur -20.8599 -17.9888 23.7669
rtibia 26.032
rfoot -14.8641 12.1083
rtoes 1.27222e-013
lfemur -24.8231 20.3147 -21.6157
ltibia 27.3941
lfoot -7.37485 -26.3971
ltoes 2.38542e-014
